<?xml version="1.0" standalone="no"?>
<!DOCTYPE svg PUBLIC "-//W3C//DTD SVG 20010904//EN"
 "http://www.w3.org/TR/2001/REC-SVG-20010904/DTD/svg10.dtd">
<svg version="1.0" xmlns="http://www.w3.org/2000/svg"
 width="1024.000000pt" height="1024.000000pt" viewBox="0 0 1024.000000 1024.000000"
 preserveAspectRatio="xMidYMid meet">
<metadata>
Created by potrace 1.16, written by Peter Selinger 2001-2019
</metadata>
<g transform="translate(0.000000,1024.000000) scale(0.100000,-0.100000)"
fill="#000000" stroke="none">
<path d="M8340 8987 c0 -3 25 -20 55 -37 142 -81 350 -270 462 -418 229 -304
337 -622 372 -1097 14 -187 15 -4437 1 -4625 -42 -560 -194 -934 -513 -1259
-281 -286 -602 -446 -1025 -511 -256 -40 -392 -41 -2697 -38 -2412 5 -2277 2
-2556 58 -361 74 -651 230 -909 489 -121 123 -216 252 -294 401 -144 277 -202
524 -226 955 -13 240 -13 4190 0 4430 24 429 80 671 220 943 132 257 326 474
565 634 97 65 114 78 75 58 -121 -63 -247 -158 -379 -285 -308 -298 -485 -662
-545 -1120 -39 -299 -41 -402 -40 -2545 1 -2113 3 -2263 40 -2548 81 -636 433
-1154 972 -1431 246 -126 474 -185 862 -223 159 -15 4002 -23 4415 -9 415 14
630 44 860 118 597 192 1048 683 1200 1305 39 158 64 382 75 669 13 319 12
3857 -1 4236 -14 426 -56 672 -156 923 -152 384 -421 694 -785 904 -27 16 -48
26 -48 23z"/>
<path d="M4650 7291 c-211 -33 -451 -128 -615 -246 -260 -186 -400 -370 -556
-730 -12 -27 -24 -44 -26 -37 -7 19 -23 3 -23 -24 0 -15 -6 -24 -15 -24 -8 0
-15 -7 -15 -16 0 -9 -6 -30 -14 -47 -18 -40 -62 -181 -71 -227 -4 -19 -12 -38
-17 -41 -11 -7 -37 -218 -40 -314 -1 -65 -1 -67 -8 -25 -4 25 -8 35 -8 23 -2
-19 -7 -22 -39 -20 -34 2 -37 0 -46 -33 -5 -19 -18 -42 -29 -52 -17 -14 -20
-26 -16 -63 3 -25 2 -45 -3 -45 -5 0 -9 12 -9 28 0 37 -19 68 -20 32 -1 -24
-1 -24 -15 -5 -8 11 -18 24 -23 29 -4 6 -6 23 -4 38 2 15 0 28 -6 28 -5 0 -12
19 -16 41 -4 23 -9 39 -12 36 -11 -10 55 -307 68 -307 5 0 6 -4 3 -10 -16 -25
106 -283 211 -446 285 -443 793 -766 1317 -839 189 -26 302 -29 427 -11 134
20 235 40 305 61 28 8 96 28 152 44 104 31 163 55 175 75 4 6 64 -49 145 -134
158 -165 534 -537 638 -630 80 -72 122 -94 218 -111 123 -23 270 24 361 115
54 53 113 171 128 253 13 71 0 168 -32 238 -12 27 -158 181 -441 467 -485 487
-448 461 -572 413 -60 -24 -89 -45 -180 -129 -60 -56 -123 -112 -139 -125 -29
-23 -31 -24 -41 -5 -5 10 -28 36 -50 57 -25 23 -34 37 -25 37 9 0 22 7 29 17
13 15 12 15 -11 3 -35 -18 -18 -3 91 78 424 315 644 884 544 1411 -58 306
-182 550 -379 747 -342 341 -820 497 -1296 425z m475 -136 c173 -30 393 -118
533 -214 88 -59 236 -203 305 -295 32 -44 83 -130 112 -190 94 -194 135 -377
135 -611 0 -229 -40 -399 -141 -600 -59 -118 -103 -178 -219 -299 -183 -191
-434 -326 -712 -383 -127 -27 -401 -24 -535 5 -279 60 -487 175 -685 378 -117
119 -167 188 -232 319 -66 132 -90 205 -116 349 -47 261 -1 605 112 831 88
176 275 394 423 495 175 118 374 197 565 224 125 18 322 14 455 -9z m1476
-2891 c217 -217 403 -412 414 -432 15 -28 20 -56 19 -112 0 -84 -24 -143 -87
-215 -29 -33 -37 -38 -49 -27 -10 8 -47 12 -114 10 -84 -1 -105 2 -140 19 -22
12 -173 153 -344 321 -208 205 -307 297 -313 289 -6 -8 -7 -6 -3 5 5 16 -59
92 -108 129 -18 13 -18 13 -5 -8 8 -13 18 -23 24 -23 5 0 1 -8 -10 -18 -11 -9
-18 -16 -16 -15 2 1 16 -4 32 -13 17 -8 29 -10 29 -4 0 19 35 -25 36 -45 2
-44 12 -70 25 -67 8 2 11 0 7 -4 -4 -4 -2 -14 4 -23 7 -9 -11 6 -40 34 -39 37
-50 54 -46 69 5 14 3 18 -9 13 -17 -6 -81 55 -70 68 5 4 3 5 -3 2 -14 -8 -76
50 -72 68 14 65 369 375 429 375 9 0 194 -178 410 -396z m-936 192 c31 -29 31
-37 0 -64 -13 -11 -36 -40 -52 -62 -25 -39 -28 -41 -41 -23 -14 17 -14 17 -9
-4 3 -13 0 -23 -5 -23 -6 0 -17 -8 -24 -17 -7 -10 -14 -13 -14 -6 0 6 5 15 10
18 18 11 11 23 -10 18 -14 -4 -20 0 -20 10 0 8 -6 17 -12 20 -10 3 -10 8 1 21
11 13 11 16 1 14 -29 -7 -18 23 17 45 21 14 51 39 67 56 33 35 51 34 91 -3z"/>
<path d="M4756 6949 c-79 -19 -128 -76 -151 -173 -10 -45 -14 -50 -51 -61 -21
-6 -72 -28 -113 -48 -68 -34 -76 -36 -92 -21 -26 23 -115 54 -158 54 -88 0
-164 -47 -199 -124 -42 -90 -37 -159 18 -234 43 -59 97 -92 164 -99 47 -5 64
-2 111 22 62 30 54 32 130 -34 58 -50 60 -57 31 -92 -32 -38 -46 -88 -46 -166
0 -34 -4 -64 -9 -68 -6 -3 -34 -10 -63 -15 l-54 -10 -46 44 c-140 134 -369 80
-429 -101 -26 -81 16 -221 86 -282 19 -17 61 -38 93 -47 48 -14 65 -15 112 -5
l55 12 128 -133 c98 -103 126 -138 122 -153 -3 -11 -9 -45 -12 -76 -15 -150
89 -269 235 -269 69 0 117 18 167 62 70 61 100 149 84 245 -14 77 -56 130
-137 170 -90 44 -165 38 -247 -22 -19 -13 -28 -6 -145 104 l-125 118 27 39
c38 55 48 87 48 150 0 45 3 54 18 54 10 0 35 9 57 20 22 11 42 20 45 20 3 0
13 -21 24 -46 30 -72 107 -148 194 -191 72 -36 81 -38 171 -37 106 0 185 24
241 71 l31 25 39 -27 c61 -43 62 -45 35 -111 -19 -45 -25 -78 -25 -136 0 -51
-4 -78 -12 -81 -8 -3 -9 -6 -2 -6 6 -1 9 -12 6 -26 -3 -20 -1 -24 11 -19 10 4
25 -9 46 -39 78 -114 160 -161 282 -161 63 0 86 5 142 32 168 78 241 246 187
428 l-22 74 39 45 c34 40 42 44 83 45 52 0 83 18 105 60 25 49 19 88 -19 126
-72 72 -186 24 -186 -78 0 -25 -10 -45 -42 -81 l-43 -47 -65 32 c-62 32 -70
33 -181 33 -113 0 -117 -1 -168 -33 l-53 -32 -42 37 c-22 21 -41 40 -40 43 0
3 10 25 21 50 38 81 47 155 31 242 l-14 76 60 21 61 20 15 -22 c67 -97 155
-147 262 -147 135 0 276 106 314 237 41 140 -32 306 -161 367 -108 52 -238 43
-322 -21 -30 -23 -51 -33 -58 -27 -104 77 -185 132 -252 170 -79 44 -82 47
-89 89 -11 79 -69 142 -149 164 -46 12 -55 12 -109 0z m114 -112 c67 -52 66
-138 0 -172 -77 -40 -160 4 -160 83 0 59 43 102 102 102 23 0 50 -6 58 -13z
m313 -296 c64 -47 117 -90 117 -97 0 -6 -7 -31 -16 -55 -9 -27 -14 -67 -12
-103 l3 -59 -65 -18 -65 -17 -48 44 c-52 50 -151 101 -216 112 -23 4 -42 10
-41 15 0 4 0 44 0 90 l0 82 61 33 c38 21 68 46 81 68 l20 34 32 -23 c17 -12
84 -60 149 -106z m-456 12 l34 -14 -3 -91 -3 -91 -64 -17 c-35 -10 -84 -32
-108 -50 -25 -17 -52 -29 -60 -26 -7 3 -38 25 -68 48 -47 37 -54 47 -49 68 13
56 15 111 6 138 -10 28 -9 29 90 77 55 27 102 53 105 58 2 4 23 -13 46 -39 23
-26 56 -53 74 -61z m-455 -3 c34 -36 48 -58 48 -78 0 -45 -39 -95 -88 -112
-41 -14 -45 -13 -88 9 -96 51 -101 157 -10 212 53 32 84 25 138 -31z m1422
-84 c60 -35 87 -82 93 -159 4 -54 1 -69 -24 -116 -37 -73 -81 -96 -180 -96
-64 0 -75 3 -115 31 -63 46 -83 86 -83 164 1 74 28 138 70 166 74 48 167 52
239 10z m-774 -247 c134 -59 192 -207 144 -370 -20 -69 -53 -112 -112 -146
-42 -25 -56 -28 -142 -28 -109 0 -150 15 -212 77 -61 61 -82 111 -82 198 0
121 50 207 147 255 99 48 170 52 257 14z m-795 -360 c47 -41 65 -78 65 -130 0
-35 -6 -48 -38 -79 -50 -51 -102 -60 -167 -29 -54 26 -84 76 -85 143 0 34 6
46 45 83 41 39 50 43 95 43 41 0 55 -5 85 -31z m1408 -253 c50 -18 104 -60
123 -97 8 -17 18 -61 21 -97 10 -122 -49 -213 -162 -248 -52 -17 -58 -17 -111
0 -224 71 -227 401 -3 445 63 13 89 12 132 -3z m-836 -362 c13 -8 32 -33 44
-56 27 -52 21 -105 -15 -153 -33 -42 -78 -56 -140 -43 -65 14 -91 52 -91 134
0 67 12 89 70 126 34 21 93 18 132 -8z"/>
<path d="M4510 2699 c-288 -8 -564 -32 -586 -50 -8 -6 -14 -15 -14 -19 0 -47
823 -97 1320 -80 286 10 670 35 774 50 80 12 116 28 95 41 -68 42 -1000 76
-1589 58z"/>
</g>
</svg>
